<?xml version="1.0" encoding="utf-8"?>
<!-- Generator: Adobe Illustrator 26.0.1, SVG Export Plug-In . SVG Version: 6.00 Build 0)  -->
<svg version="1.1" id="Layer_1" xmlns="http://www.w3.org/2000/svg" xmlns:xlink="http://www.w3.org/1999/xlink" x="0px" y="0px"
	 viewBox="0 0 2280 1050" style="enable-background:new 0 0 2280 1050;" xml:space="preserve">
<style type="text/css">
	.st0{fill:none;}
	.st1{fill:#0A6A36;}
	.st2{fill:#87C540;}
	.st3{fill:#FFFFFF;}
	.st4{fill:#2C2A29;}
	.st5{fill:#F6B818;}
</style>
<rect class="st0" width="2280" height="1050"/>
<g>
	<path class="st1" d="M682.9,813c-2.6,29.8-17.3,55-48.8,69.8c-32.7,15.4-67,7.9-84.2-10.4c-17.1-18.2-26.4-47.8-23.5-81.2
		c65.6-19.4,146-42.4,208.6-62.7c27.2-10.5,40.1-28.3,43.1-48.2l0-28.8c1.5-29.3-5.1-41.1-49.7-66.4c-14.2-8.1-28.9-17-45.7-22.7
		c-7.4-2.1-14.8-4.2-22.2-6.3c-39.9-9.1-84.3-8.4-123.5,3.1l-3.1,0.9c-55.8,17.3-103.5,32.7-103.5,95c0,6.7-0.6,40.2-0.7,47.4
		l-0.1,40.5c0.2,17.7,0.5,35.5,0.7,52c6.9,48.5,50.8,87.3,88.3,114.5c26.7,19.4,55.6,36.3,85.6,50.2c26.9-13.1,53.1-28,77.7-45.1
		c30.2-21,66.2-50.5,84.4-85.9C750.4,804,707.7,815.3,682.9,813z"/>
	<path class="st1" d="M1492.3,825c0,32.8-39.4,65.8-70.7,68.5c-38.7,3.3-87.4-29.5-87.4-70.7v-260h-96.3l-1.7,3.8l0.1,271.7
		c9.7,146.4,210.6,169,252.2,28.4l3.9-17.8v42.9c0,1.4,0.1,2.7,0.3,4.2v19.2c0,25.3,20.5,45.8,45.8,45.8h51.8v-9.6v-88.1V562.8h-98
		V825z"/>
	<path class="st1" d="M164.3,617.8c-53-42.2-35.3-112.3,32.7-117.3c49.8-3.7,109.3,27.8,125.2,76.8l52.2-51.6
		C316.9,454,206.9,430.4,123.4,468c-85.7,38.5-112.1,141.1-41.6,209c44.4,42.7,104.8,61.3,156.6,91.6c34.8,20.4,60.1,49.9,31.4,89.6
		c-24,33.2-72.7,43.8-111.2,34.7c-37.8-9-67.2-39.7-78.5-76.3l-54.9,55.3c23,35.8,63.9,61.2,104.5,73.3
		c99.3,29.7,242.7-18.4,247.2-137C381.3,690,234.3,673.5,164.3,617.8z"/>
	<path class="st1" d="M1087.1,831.7c0,23.4-19.6,51.5-39.1,63.4c-51.6,31.3-113.1-6.6-116.9-64.4c3.3-48.9-4.2-103.1,0.2-151.3
		c4.6-49.7,57.5-85.9,105.3-66.6c24.8,10,50.5,41,50.5,68.7v22.8l96.7-25.8c-0.3-69.1-66-108.1-126.8-119.6
		C967.9,542.1,839,572,833.2,681.3c-2.4,45.4-2.5,106.1,0,151.5c5.8,106,130.6,138.2,218.5,123.8c63.4-10.4,132.1-50.2,132.2-122.1
		l-96.8-24.5V831.7z"/>
	<path class="st1" d="M1743.6,635.6l-3.2,16.3v-34c0-1.1-0.1-2.3-0.3-3.5v-6.9c0-25.3-20.5-45.8-45.8-45.8h-4.5h-47.3v97.7v290.9h98
		V732.6c0-2.5,2.2-11.8,3-14.8c11.9-43.8,59.5-71.7,103.9-63.7v-96.9C1799.8,556.8,1755.7,589.7,1743.6,635.6z"/>
	<path class="st1" d="M2220.8,562.8h-17.9c-25.3,0-45.8,20.5-45.8,45.8v20.9c-0.1,1.3,0.4,91.9-0.2,193.3
		c-6,92.1-151.1,94.5-158.1-1.2c-3.2-43.5,2.4-90.8-0.1-134.7c0.3-34.1,37.6-74,71.9-74h82.3v-50.1l-127.9,0
		c-69.5,4.1-120.7,57.2-124.2,126.3c-2.3,44.6-2.4,103.7,0,148.2c8.2,148.7,212.8,170.1,252.2,28.4l3.9-18.9v42.9
		c0,1.4,0.1,2.8,0.3,4.3v21.3c0,25.3,20.5,45.8,45.8,45.8h51.8v-9.6v-88.1V660.5v-97.7H2220.8z"/>
	<path class="st2" d="M525.7,756.9c250.8-21.2,233.6-194.3,233.6-194.3c-82.5-6-136.2,10.9-171.1,36.9
		C562.6,620.9,525.7,667.3,525.7,756.9z"/>
	<path class="st3" d="M540,738.8c34.1-66.6,101.4-114.7,171.1-138.7c-7.7,5.5-15.7,10.2-23.4,15.3
		C633.7,650.5,582.3,689.9,540,738.8L540,738.8z"/>
	<path class="st2" d="M528.3,680.9c-53.2-24.1-36-60.6-36-60.6c18.5,5.1,28.9,12.9,34.5,21.3C530.8,648.3,535.3,661.3,528.3,680.9z"
		/>
	<path class="st3" d="M502.9,635.5c12.2,9.9,19.9,24.8,23.5,40C520.8,661,513.6,647,502.9,635.5L502.9,635.5z"/>
	<g>
		<path class="st4" d="M1229,286.7h-59.8v8.3l10.8,8.5v166l-12.5,8.6v8.3h15.1h46.4c33.3,0,57.2-17.1,57.2-52.4v-50.7v-45
			C1286.2,300.9,1263.2,286.7,1229,286.7 M1256.6,433.9c0,19.1-6.6,34.2-27.7,34.5h-25.1l-0.3-1.7c4.8-1.4,6.2-4,6.2-8.8v-10V304
			h19.1c21.1,0.3,27.7,15.4,27.7,34.2V382V433.9z"/>
		<path class="st4" d="M1417.2,456.4l-12.1-33.2l-1.3-3.5c-0.9-2.6-1.9-4.9-3.1-7c-2.7-4.9-6.3-8.6-12.3-11.8
			c18.5-3.7,32.2-17.3,32.2-41.8v-25.9c0-34.8-25-46.4-55.8-46.4H1307v8.2l10.5,7.4v88.9v66.5v11.8L1305,478v8.3h54.1V478l-12.5-8.6
			v-23.2v-42c16.8,0,21.9,4,27.6,19.3l3.9,10.2l10,26.2c5.7,15.1,7.4,27.9,25.3,27.9c6.2,0,15.1-0.9,20.8-3.7v-11.1
			C1425.2,475.2,1420.1,464.1,1417.2,456.4 M1346.3,304.3h18.5c19.6,0,26.2,10.5,26.2,28.7V359c0,18.2-7.4,28.8-26.5,28.8h-18.2
			V304.3z"/>
		<path class="st4" d="M1485.2,477.5l-10.3-5.1l9.4-39.9h52.4l9.4,40.2l-10.2,6.3v7.4h50.7v-8.8l-10.3-6.3l-45.9-185.7h-29.3
			c-14.5,58.7-30.5,127.6-44.7,186.6l-10.2,5.4v8.8h39V477.5z M1510.3,320.3h0.3l22.1,95.9h-44.7L1510.3,320.3z"/>
		<path class="st5" d="M889.7,326.9c-7.9,48.9,12.3,88.2,36.2,115.4c11.1,14.1,25.4,25.6,40.2,36.5c2.8,1.1,4.8,3.1,7.1,4.5
			c9.8,5.9,20.6,11.6,31.5,16.4c6.4,2.8,42.5,15,43,13.5c-20.4-14.2-40.1-31.1-55.6-49.6c-9.8-11.7-18.4-25.1-23.2-40.8
			c-4.5-14.4-5.7-34-1.5-50.3c6.5-25,21.6-43.4,37-61.2c9.7-9.7,19.9-19.3,30.6-27.8c6.6-5.3,13-10.8,20.6-15.1
			c1.3-1.4,2.8-2.5,4.9-3.2c1.6-1.8,4.1-2.9,6.1-4.3c2.1-1.4,4.2-2.7,6.1-4.2c5.8-3.4,11.3-7.2,16.9-10.7c1-0.6,1.8-1.4,2.7-1.9
			c1-0.6,2.2-0.9,3.1-1.5c3.7-2.4,7.3-4.9,10.8-7.4c3.6-2.6,7.5-4.9,11-7.4c6.7-4.9,12.7-11.4,17.6-18.5c6-8.7,10.4-19.2,13.2-30.6
			c6.2-24.7,3.7-56.4,2.2-83.9c-0.1-1.9,0-4.1-1.2-5.9h-0.2c-3.9,2.6-8.9,4.5-12.7,7.3c-7.8,3.9-15.2,8.1-22.5,12.5
			c-10.2,5.6-20.2,11.3-30.3,17.1c-9.3,5.3-18.1,11.4-27.2,17c-12.8,7.9-25.2,16.1-37.4,24.2c-4.1,2.7-7.9,5.8-12,8.7
			c-50.2,35.6-97.6,75.7-114.1,140.4C891.4,319.7,890.3,323.4,889.7,326.9"/>
		<path class="st5" d="M855.4,430.8c4,3.7,7,8.2,11.5,11.5c4.4,4.1,9.1,8.1,14.9,11c1.2,1.5,3.2,2.2,4.9,3.2
			c9.4,5.6,19.5,11.2,29.1,16.3c8.8,5,19.1,9.6,28.4,13.4c2.8,1.2,18.9,8.2,29,11.6c1.8,0.6,16.4,5.6,17.8,4.9
			c-14.5-7.9-32.4-20.4-45.3-31.2c-2.1-1.7-3.7-3.5-5.7-5.1c-15.3-13.2-29.2-27.3-40.6-43.8c-2.4-3.7-4.5-7.7-7.1-11.2
			c-6.3-12.1-12.7-25.7-15.4-41c-3.9-22.2-1.3-47.2,4.9-65.7c12.4-37.2,35.8-66.9,59.5-93.5c0-0.1-0.2-0.2-0.5-0.2
			c-0.9,1.3-2.5,2.1-3.9,3.2c-1.2,0.9-2.3,2.1-3.5,3c-17.3,14.6-34,30.2-48.9,46.5c-15.2,16.7-28.6,34.5-38.5,55.9
			c-1,2.2-2.7,4.2-3.4,6.5c-2.9,9.4-7.5,18.2-9.1,28.3c-2.5,15.9,0.4,33.6,4.9,46.5C843,412,848.8,421.8,855.4,430.8"/>
		<path class="st5" d="M1046.4,376.2c2.6-5.1,6.8-9.3,10.5-13.7c11.3-13.1,26-23.1,39.9-33.7c2.7-2.9,5.9-5.4,8.8-8.1
			c6-5.4,11.5-11.1,16.4-17.2c2.5-3.1,4.6-6.4,7.1-9.6c3.5-7,7.7-14.9,9.8-24.2c3.2-14.2,2.6-30.7-0.7-44.8h-0.5
			c-20.7,14.1-41.5,28-62.9,41.4c-23.4,14.6-44.7,31.1-62.7,50.2c-6,6.3-11.5,13.4-16.2,20.8c-5,6.5-9,13.9-11.7,22.3
			c-3.2,5.9-4.4,12.2-5.7,19.5c-5.5,31.8,6,60.1,20.8,77.5c14.6,18.2,32.9,33.3,54.6,45c1.3,0.7,2.5,1.4,3.8,2.1
			c3.6,1.9,8.5,3.6,12.5,5.2c3.3,1.4,8,3.2,12.1,4.3c3.9,1,18.7,5.2,22.2,4.9c-0.2-0.1-4.9-3.3-9.7-6.5c-9.2-6.2-17.4-11.9-26-19.2
			c-15.3-12.9-29.8-30.4-35.7-50.1c-5-16.6-2.1-36,3.4-49.5C1038.9,387.4,1043.1,380.3,1046.4,376.2"/>
	</g>
</g>
</svg>
